<svg width="24" height="24" viewBox="0 0 24 24" fill="none" xmlns="http://www.w3.org/2000/svg">
<rect width="24" height="24" rx="12" fill="#474747"/>
<path d="M16.7281 14.7602C16.9084 14.7602 17.0586 14.8203 17.1788 14.9405C17.299 15.0607 17.3591 15.2109 17.3591 15.3912C17.3591 15.564 17.299 15.7104 17.1788 15.8306C17.0586 15.9433 16.9084 15.9996 16.7281 15.9996H12.8973C12.702 15.9996 12.548 15.9395 12.4354 15.8194C12.3227 15.6992 12.2664 15.5452 12.2664 15.3574C12.2664 15.1696 12.334 15.0044 12.4692 14.8616L14.9254 12.2364C15.2033 11.936 15.4212 11.628 15.5789 11.3125C15.7441 10.997 15.8268 10.7229 15.8268 10.49C15.8268 10.1145 15.7179 9.814 15.5 9.58866C15.2822 9.3558 14.993 9.23938 14.6325 9.23938C14.4897 9.23938 14.3433 9.27318 14.193 9.34078C14.0428 9.40838 13.8963 9.50228 13.7536 9.62246C13.6184 9.74264 13.4907 9.8816 13.3705 10.0393C13.2804 10.1595 13.1903 10.2346 13.1001 10.2647C13.01 10.2947 12.9274 10.3098 12.8523 10.3098C12.687 10.3098 12.533 10.2497 12.3903 10.1295C12.2551 10.0018 12.1875 9.85531 12.1875 9.69006C12.1875 9.56237 12.2288 9.43843 12.3114 9.31825C12.4016 9.19807 12.5105 9.07413 12.6382 8.94643C12.826 8.75865 13.0363 8.5934 13.2691 8.45068C13.502 8.30797 13.7424 8.19905 13.9902 8.12394C14.2381 8.04131 14.4785 8 14.7113 8C15.2146 8 15.6502 8.1014 16.0183 8.30421C16.3939 8.49951 16.6831 8.78118 16.8859 9.14924C17.0887 9.50979 17.1901 9.93794 17.1901 10.4337C17.1901 10.8468 17.0661 11.3088 16.8183 11.8195C16.5779 12.3228 16.2512 12.796 15.838 13.2392L14.317 14.8616L14.193 14.7602H16.7281Z" fill="white"/>
<path d="M10.7475 14.682C10.9428 14.682 11.1043 14.7458 11.232 14.8735C11.3672 14.9937 11.4348 15.1514 11.4348 15.3467C11.4348 15.5345 11.3672 15.6923 11.232 15.82C11.1043 15.9401 10.9428 16.0002 10.7475 16.0002H7.08573C6.89043 16.0002 6.72518 15.9364 6.58998 15.8087C6.46228 15.6735 6.39844 15.5082 6.39844 15.3129V8.80057C6.39844 8.60528 6.46604 8.44378 6.60124 8.31609C6.73645 8.18088 6.90921 8.11328 7.11953 8.11328C7.2998 8.11328 7.45754 8.18088 7.59275 8.31609C7.73546 8.44378 7.80682 8.60528 7.80682 8.80057V14.8735L7.55895 14.682H10.7475Z" fill="white"/>
</svg>
