<svg width="34" height="34" viewBox="0 0 34 34" fill="none" xmlns="http://www.w3.org/2000/svg">
<path d="M32.0185 23.418L29.9979 29.9875L26.0312 28.9443L32.0185 23.418Z" fill="#E4761B" stroke="#E4761B" stroke-width="0.190386"/>
<path d="M26.0312 28.9443L29.8571 23.9037L32.0185 23.418L26.0312 28.9443Z" fill="#E4761B" stroke="#E4761B" stroke-width="0.190386"/>
<path d="M29.0469 18.4645L32.0198 23.4175L29.8584 23.9033L29.0469 18.4645ZM29.0469 18.4645L30.9598 17.1904L32.0198 23.4175L29.0469 18.4645Z" fill="#F6851B" stroke="#F6851B" stroke-width="0.190386"/>
<path d="M26.6094 14.7226L32.108 12.5566L31.8347 13.7431L26.6094 14.7226ZM31.6608 15.1685L26.6094 14.7226L31.8347 13.7431L31.6608 15.1685Z" fill="#763D16" stroke="#763D16" stroke-width="0.190386"/>
<path d="M31.6608 15.1685L30.9569 17.1911L26.6094 14.7226L31.6608 15.1685ZM32.7622 13.0583L31.8347 13.7431L32.108 12.5566L32.7622 13.0583ZM31.6608 15.1685L31.8347 13.7431L32.5717 14.3324L31.6608 15.1685Z" fill="#763D16" stroke="#763D16" stroke-width="0.190386"/>
<path d="M21.7656 27.3438L23.1403 27.7658L26.0304 28.9443L21.7656 27.3438Z" fill="#E2761B" stroke="#E2761B" stroke-width="0.190386"/>
<path d="M30.9634 17.1912L31.6673 15.1686L32.2719 15.6145L30.9634 17.1912ZM30.9634 17.1912L25.2578 15.3836L26.6159 14.7227L30.9634 17.1912Z" fill="#763D16" stroke="#763D16" stroke-width="0.190386"/>
<path d="M27.974 8.51855L26.6159 14.7218L25.2578 15.3827L27.974 8.51855Z" fill="#763D16" stroke="#763D16" stroke-width="0.190386"/>
<path d="M32.108 12.5558L26.6094 14.7218L27.9675 8.51855L32.108 12.5558Z" fill="#763D16" stroke="#763D16" stroke-width="0.190386"/>
<path d="M27.9688 8.51888L33.7075 7.88184L32.1093 12.5561L27.9688 8.51888Z" fill="#763D16" stroke="#763D16" stroke-width="0.190386"/>
<path d="M30.9634 17.1904L29.0505 18.4645L25.2578 15.3828L30.9634 17.1904Z" fill="#F6851B" stroke="#F6851B" stroke-width="0.190386"/>
<path d="M33.4591 3.41504L33.7075 7.88231L27.9688 8.51936L33.4591 3.41504Z" fill="#763D16" stroke="#763D16" stroke-width="0.190386"/>
<path d="M33.4621 3.41504L21.9928 11.4338L21.8438 5.99507L33.4621 3.41504Z" fill="#E2761B" stroke="#E2761B" stroke-width="0.190386"/>
<path d="M13.3125 5.3418L21.842 5.99477L21.991 11.4335L13.3125 5.3418Z" fill="#F6851B" stroke="#F6851B" stroke-width="0.190386"/>
<path d="M25.2549 15.3827L21.9922 11.433L27.9711 8.51855L25.2549 15.3827Z" fill="#763D16" stroke="#763D16" stroke-width="0.190386"/>
<path d="M25.2507 15.3828L29.0435 18.4645L23.7188 19.0299L25.2507 15.3828Z" fill="#E4761B" stroke="#E4761B" stroke-width="0.190386"/>
<path d="M23.7229 19.0303L21.9922 11.4336L25.2549 15.3833L23.7229 19.0303Z" fill="#E4761B" stroke="#E4761B" stroke-width="0.190386"/>
<path d="M27.9711 8.51936L21.9922 11.4338L33.4614 3.41504L27.9711 8.51936Z" fill="#763D16" stroke="#763D16" stroke-width="0.190386"/>
<path d="M13.3834 28.8173L16.0913 31.5327L12.4062 28.3076L13.3834 28.8173Z" fill="#C0AD9E" stroke="#C0AD9E" stroke-width="0.190386"/>
<path d="M26.0312 28.9439L27.3148 24.2537L29.8571 23.9033L26.0312 28.9439Z" fill="#CD6116" stroke="#CD6116" stroke-width="0.190386"/>
<path d="M2.40625 15.7497L7.09332 11.0117L3.01077 15.1844L2.40625 15.7497Z" fill="#E2761B" stroke="#E2761B" stroke-width="0.190386"/>
<path d="M29.858 23.9037L27.3158 24.2541L29.0465 18.4649L29.858 23.9037ZM21.991 11.4335L17.4282 11.2902L13.3125 5.3418L21.991 11.4335Z" fill="#F6851B" stroke="#F6851B" stroke-width="0.190386"/>
<path d="M29.0434 18.4648L27.3127 24.254L27.1719 21.4271L29.0434 18.4648Z" fill="#E4751F" stroke="#E4751F" stroke-width="0.190386"/>
<path d="M23.7188 19.0302L29.0435 18.4648L27.1719 21.4271L23.7188 19.0302Z" fill="#CD6116" stroke="#CD6116" stroke-width="0.190386"/>
<path d="M17.4297 11.29L21.9925 11.4334L23.7233 19.0301L17.4297 11.29Z" fill="#F6851B" stroke="#F6851B" stroke-width="0.190386"/>
<path d="M17.4283 11.2902L5.11441 0.333008L13.3126 5.34177L17.4283 11.2902ZM13.3044 30.4811L2.60526 33.6663L0.46875 25.8227L13.3044 30.4811Z" fill="#E4761B" stroke="#E4761B" stroke-width="0.190386"/>
<path d="M4 17.708L8.04115 14.6582L11.4281 15.4147L4 17.708Z" fill="#763D16" stroke="#763D16" stroke-width="0.190386"/>
<path d="M11.426 15.415L8.03906 14.6586L9.85261 7.45996L11.426 15.415Z" fill="#763D16" stroke="#763D16" stroke-width="0.190386"/>
<path d="M3.00781 15.1838L8.0344 14.6582L3.99326 17.708L3.00781 15.1838Z" fill="#763D16" stroke="#763D16" stroke-width="0.190386"/>
<path d="M27.172 21.4272L25.0851 20.4158L23.7188 19.0303L27.172 21.4272Z" fill="#CD6116" stroke="#CD6116" stroke-width="0.190386"/>
<path d="M3.01233 15.1846L2.65625 13.377L8.03893 14.659L3.01233 15.1846Z" fill="#763D16" stroke="#763D16" stroke-width="0.190386"/>
<path d="M24.6562 22.6934L25.0869 20.416L27.1737 21.4273L24.6562 22.6934Z" fill="#233447" stroke="#233447" stroke-width="0.190386"/>
<path d="M27.3145 24.2536L24.6562 22.6929L27.1737 21.4268L27.3145 24.2536Z" fill="#F6851B" stroke="#F6851B" stroke-width="0.190386"/>
<path d="M8.04033 14.6586L2.65765 13.3765L2.21875 11.8556L8.04033 14.6586ZM9.85387 7.45996L8.04033 14.6586L2.21875 11.8556L9.85387 7.45996ZM9.85387 7.45996L17.431 11.2902L11.4273 15.415L9.85387 7.45996Z" fill="#763D16" stroke="#763D16" stroke-width="0.190386"/>
<path d="M11.4219 15.4149L17.4256 11.29L20.1004 19.1496L11.4219 15.4149ZM20.1004 19.1496L11.8028 18.9823L11.4219 15.4149L20.1004 19.1496Z" fill="#E4761B" stroke="#E4761B" stroke-width="0.190386"/>
<path d="M4 17.7083L11.4281 15.4149L11.809 18.9823L4 17.7083ZM23.7254 19.0301L20.1066 19.1496L17.4318 11.29L23.7254 19.0301Z" fill="#F6851B" stroke="#F6851B" stroke-width="0.190386"/>
<path d="M25.0851 20.4158L24.6545 22.6933L23.7188 19.0303L25.0851 20.4158Z" fill="#CD6116" stroke="#CD6116" stroke-width="0.190386"/>
<path d="M5.11719 0.333008L17.4311 11.2902L9.85394 7.45994L5.11719 0.333008Z" fill="#763D16" stroke="#763D16" stroke-width="0.190386"/>
<path d="M0.46875 25.8223L10.8532 25.4082L13.3044 30.4807L0.46875 25.8223Z" fill="#E4761B" stroke="#E4761B" stroke-width="0.190386"/>
<path d="M13.3027 30.4813L10.8516 25.4088L15.9527 25.1699L13.3027 30.4813Z" fill="#CD6116" stroke="#CD6116" stroke-width="0.190386"/>
<path d="M24.6577 22.6929L27.3159 24.2536L28.7816 27.5742L24.6577 22.6929ZM11.8055 18.9821L0.46875 25.8224L3.99647 17.708L11.8055 18.9821ZM10.8532 25.4083L0.46875 25.8224L11.8055 18.9821L10.8532 25.4083ZM23.7219 19.0299L24.401 21.4029L21.1217 21.586L23.7219 19.0299ZM21.1217 21.586L20.1031 19.1493L23.7219 19.0299L21.1217 21.586Z" fill="#F6851B" stroke="#F6851B" stroke-width="0.190386"/>
<path d="M16.0954 31.5326L13.3047 30.4814L23.0101 32.0502L16.0954 31.5326Z" fill="#C0AD9E" stroke="#C0AD9E" stroke-width="0.190386"/>
<path d="M3.99621 17.7089L2.40625 15.7499L3.01077 15.1846L3.99621 17.7089Z" fill="#763D16" stroke="#763D16" stroke-width="0.190386"/>
<path d="M24.1114 30.8876L23.0101 32.0502L13.3047 30.4814L24.1114 30.8876Z" fill="#D7C1B3" stroke="#D7C1B3" stroke-width="0.190386"/>
<path d="M24.6332 28.0366L13.3047 30.4813L15.9546 25.1699L24.6332 28.0366Z" fill="#E4761B" stroke="#E4761B" stroke-width="0.190386"/>
<path d="M13.3047 30.4808L24.6332 28.0361L24.1115 30.8869L13.3047 30.4808Z" fill="#D7C1B3" stroke="#D7C1B3" stroke-width="0.190386"/>
<path d="M2.2164 11.856L1.84375 5.73242L9.85152 7.4604L2.2164 11.856ZM3.01138 15.1846L1.91 14.1096L2.65529 13.377L3.01138 15.1846Z" fill="#763D16" stroke="#763D16" stroke-width="0.190386"/>
<path d="M18.25 20.7261L20.105 19.1494L19.84 23.0035L18.25 20.7261Z" fill="#CD6116" stroke="#CD6116" stroke-width="0.190386"/>
<path d="M20.1015 19.1494L18.2465 20.7261L15.5469 22.0719L20.1015 19.1494Z" fill="#CD6116" stroke="#CD6116" stroke-width="0.190386"/>
<path d="M28.7802 27.5747L28.2751 27.2164L24.6562 22.6934L28.7802 27.5747Z" fill="#F6851B" stroke="#F6851B" stroke-width="0.190386"/>
<path d="M15.5477 22.0721L11.8047 18.9824L20.1023 19.1496L15.5477 22.0721Z" fill="#CD6116" stroke="#CD6116" stroke-width="0.190386"/>
<path d="M19.8359 23.0035L20.1009 19.1494L21.1195 21.5861L19.8359 23.0035Z" fill="#E4751F" stroke="#E4751F" stroke-width="0.190386"/>
<path d="M1.54688 12.4607L2.21764 11.8555L2.65653 13.3764L1.54688 12.4607Z" fill="#763D16" stroke="#763D16" stroke-width="0.190386"/>
<path d="M19.8365 23.004L15.5469 22.0723L18.2465 20.7266L19.8365 23.004Z" fill="#233447" stroke="#233447" stroke-width="0.190386"/>
<path d="M9.85152 7.45994L1.84375 5.73196L5.11476 0.333008L9.85152 7.45994Z" fill="#763D16" stroke="#763D16" stroke-width="0.190386"/>
<path d="M23.0084 32.0498L23.4639 33.2443L16.0938 31.5322L23.0084 32.0498Z" fill="#C0AD9E" stroke="#C0AD9E" stroke-width="0.190386"/>
<path d="M15.9526 25.1699L15.5469 22.0723L19.8365 23.0039L15.9526 25.1699Z" fill="#F6851B" stroke="#F6851B" stroke-width="0.190386"/>
<path d="M11.8047 18.9824L15.5477 22.0721L15.9535 25.1697L11.8047 18.9824Z" fill="#E4751F" stroke="#E4751F" stroke-width="0.190386"/>
<path d="M21.1201 21.5863L24.3993 21.4032L28.2749 27.2162L21.1201 21.5863ZM11.8039 18.9824L15.9527 25.1697L10.8516 25.4086L11.8039 18.9824Z" fill="#F6851B" stroke="#F6851B" stroke-width="0.190386"/>
<path d="M21.1195 21.5859L25.1938 27.5503L19.8359 23.0034L21.1195 21.5859Z" fill="#E4751F" stroke="#E4751F" stroke-width="0.190386"/>
<path d="M19.8359 23.0039L25.1938 27.5508L24.6307 28.0366L19.8359 23.0039Z" fill="#F6851B" stroke="#F6851B" stroke-width="0.190386"/>
<path d="M24.6317 28.036L15.9531 25.1693L19.8369 23.0034L24.6317 28.036ZM28.2753 27.2158L25.1948 27.5503L21.1205 21.5859L28.2753 27.2158Z" fill="#F6851B" stroke="#F6851B" stroke-width="0.190386"/>
<path d="M29.0861 30.0195L27.7611 32.5757L23.4633 33.2446L29.0861 30.0195ZM23.4633 33.2446L23.0078 32.0501L24.1092 30.8875L23.4633 33.2446Z" fill="#C0AD9E" stroke="#C0AD9E" stroke-width="0.190386"/>
<path d="M24.1147 30.8875L24.9262 30.5769L23.4688 33.2446L24.1147 30.8875ZM23.4688 33.2446L24.9262 30.5769L29.0916 30.0195L23.4688 33.2446Z" fill="#C0AD9E" stroke="#C0AD9E" stroke-width="0.190386"/>
<path d="M28.2739 27.2158L29.2924 27.8131L26.1953 28.1714L28.2739 27.2158Z" fill="#161616" stroke="#161616" stroke-width="0.190386"/>
<path d="M26.1973 28.1714L25.1953 27.5503L28.2759 27.2158L26.1973 28.1714ZM25.8412 28.6412L29.6091 28.2032L29.0874 30.0188L25.8412 28.6412Z" fill="#161616" stroke="#161616" stroke-width="0.190386"/>
<path d="M29.0863 30.0193L24.9209 30.5767L25.8401 28.6417L29.0863 30.0193ZM24.9209 30.5767L24.1094 30.8873L24.6311 28.0365L24.9209 30.5767ZM24.6311 28.0365L25.1942 27.5508L26.1962 28.1719L24.6311 28.0365ZM29.2933 27.8136L29.608 28.2038L25.8401 28.6417L29.2933 27.8136Z" fill="#161616" stroke="#161616" stroke-width="0.190386"/>
<path d="M25.8418 28.6416L26.1979 28.1718L29.295 27.8135L25.8418 28.6416ZM24.6328 28.0364L25.8418 28.6416L24.9226 30.5767L24.6328 28.0364Z" fill="#161616" stroke="#161616" stroke-width="0.190386"/>
<path d="M26.1979 28.1715L25.8418 28.6413L24.6328 28.0361L26.1979 28.1715Z" fill="#161616" stroke="#161616" stroke-width="0.190386"/>
</svg>
