<svg width="24" height="24" viewBox="0 0 26 24" fill="none" xmlns="http://www.w3.org/2000/svg">
<path d="M24.6174 18.2998L15.444 2.41103C14.9339 1.52753 14.0203 1 13 1C11.9797 1 11.0661 1.52753 10.556 2.41103L1.3826 18.2998C0.872465 19.1834 0.872465 20.2383 1.3826 21.1219C1.89274 22.0054 2.80633 22.5329 3.82661 22.5329H22.1733C23.1936 22.5329 24.1072 22.0054 24.6174 21.1219C25.1275 20.2383 25.1275 19.1834 24.6174 18.2998ZM23.3997 20.4189C23.1437 20.8622 22.6853 21.1269 22.1733 21.1269H3.82661C3.31465 21.1269 2.85621 20.8622 2.60027 20.4189C2.34434 19.9756 2.34434 19.4462 2.60027 19.0029L11.7737 3.1141C12.0297 2.67076 12.4881 2.40611 13 2.40611C13.5119 2.40611 13.9704 2.67076 14.2263 3.1141L23.3997 19.0029C23.6556 19.4462 23.6556 19.9756 23.3997 20.4189Z" fill="#DD3A44"/>
<path fill-rule="evenodd" clip-rule="evenodd" d="M10.3395 2.28603C10.8942 1.32518 11.8904 0.75 13 0.75C14.1096 0.75 15.1057 1.32518 15.6605 2.28603L24.8339 18.1748C25.3887 19.1357 25.3887 20.286 24.8339 21.2469L24.8339 21.2469C24.279 22.2077 23.2829 22.7829 22.1733 22.7829H3.82661C2.71702 22.7829 1.7209 22.2078 1.1661 21.2469C0.611299 20.286 0.611302 19.1357 1.1661 18.1748L1.3826 18.2998L1.1661 18.1748L10.3395 2.28603L10.556 2.41103L10.3395 2.28603ZM13 1.25C12.0691 1.25 11.2379 1.72988 10.7725 2.53603L1.59911 18.4248C1.13363 19.231 1.13363 20.1907 1.59911 20.9969C2.06459 21.8031 2.89565 22.2829 3.82661 22.2829H22.1733C23.1042 22.2829 23.9354 21.803 24.4009 20.9969C24.8664 20.1907 24.8664 19.231 24.4009 18.4248L15.2275 2.53603C14.762 1.72988 13.9309 1.25 13 1.25ZM13 2.65611C12.5774 2.65611 12.2015 2.87312 11.9902 3.23909L11.9902 3.2391L2.81678 19.1279C2.6055 19.4939 2.6055 19.9279 2.81678 20.2939C3.02806 20.6599 3.40395 20.8769 3.82661 20.8769H22.1733C22.5959 20.8769 22.9718 20.6599 23.1832 20.2939C23.3945 19.9279 23.3945 19.4939 23.1832 19.1279C23.1832 19.1279 23.1832 19.1279 23.1832 19.1279L14.0098 3.2391L14.0098 3.23909C13.7985 2.87312 13.4226 2.65611 13 2.65611ZM11.5572 2.9891C11.8578 2.4684 12.3988 2.15611 13 2.15611C13.6012 2.15611 14.1422 2.4684 14.4428 2.9891C14.4428 2.98911 14.4428 2.98911 14.4428 2.98911L23.6162 18.8779L23.6163 18.8779C23.9168 19.3986 23.9168 20.0232 23.6162 20.5439L23.6162 20.5439C23.3155 21.0646 22.7746 21.3769 22.1733 21.3769H3.82661C3.22534 21.3769 2.68436 21.0646 2.38376 20.5439C2.08317 20.0232 2.08317 19.3986 2.38376 18.8779L2.58495 18.9941L2.38377 18.8779L11.5572 2.98911C11.5572 2.98911 11.5572 2.98911 11.5572 2.9891Z" fill="#DD3A44"/>
<path d="M12.9999 16.4531C12.483 16.4531 12.0625 16.8736 12.0625 17.3905C12.0625 17.9074 12.483 18.3279 12.9999 18.3279C13.5167 18.3279 13.9373 17.9074 13.9373 17.3905C13.9373 16.8736 13.5168 16.4531 12.9999 16.4531Z" fill="#DD3A44" stroke="#DD3A44" stroke-width="0.5"/>
<path d="M13.7029 8.01562H12.2969V15.046H13.7029V8.01562Z" fill="#DD3A44" stroke="#DD3A44" stroke-width="0.5" stroke-linejoin="round"/>
</svg>
