<svg width="14" height="9" viewBox="0 0 14 9" fill="none" xmlns="http://www.w3.org/2000/svg">
<path fill-rule="evenodd" clip-rule="evenodd" d="M6.22652 7.60152C5.79939 7.17439 5.79939 6.48186 6.22652 6.05473L10.8047 1.47652C11.2319 1.04939 11.9244 1.04939 12.3515 1.47652C12.7787 1.90366 12.7787 2.59618 12.3515 3.02332L7.77332 7.60152C7.34618 8.02866 6.65366 8.02866 6.22652 7.60152Z" fill="#BBBEC6"/>
<path fill-rule="evenodd" clip-rule="evenodd" d="M1.64848 1.47652C2.07561 1.04939 2.76814 1.04939 3.19527 1.47652L7.77348 6.05473C8.20061 6.48186 8.20061 7.17439 7.77348 7.60152C7.34634 8.02866 6.65382 8.02866 6.22668 7.60152L1.64848 3.02332C1.22134 2.59618 1.22134 1.90366 1.64848 1.47652Z" fill="#BBBEC6"/>
</svg>
