<svg width="40" height="40" viewBox="0 0 40 40" fill="none" xmlns="http://www.w3.org/2000/svg">
<path d="M20 40C31.0457 40 40 31.0457 40 20C40 8.9543 31.0457 0 20 0C8.9543 0 0 8.9543 0 20C0 31.0457 8.9543 40 20 40Z" fill="#627EEA"/>
<path d="M20.625 4.99805V16.0861L29.9962 20.2742L20.625 4.99805Z" fill="white" fill-opacity="0.602"/>
<path d="M20.6251 4.99805L11.2539 20.2742L20.6251 16.0861V4.99805Z" fill="white"/>
<path d="M20.625 27.4577V34.9919L30.0017 22.0176L20.625 27.4577Z" fill="white" fill-opacity="0.602"/>
<path d="M20.6251 34.9919V27.4577L11.2539 22.0176L20.6251 34.9919Z" fill="white"/>
<path d="M20.625 25.7141L29.9962 20.274L20.625 16.0859V25.7141Z" fill="white" fill-opacity="0.2"/>
<path d="M11.2539 20.274L20.6251 25.7141V16.0859L11.2539 20.274Z" fill="white" fill-opacity="0.602"/>
</svg>
