<svg width="40" height="40" viewBox="0 0 40 40" fill="none" xmlns="http://www.w3.org/2000/svg">
<rect width="40" height="40" rx="20" fill="white"/>
<g clip-path="url(#clip0_6796_205578)">
<path fill-rule="evenodd" clip-rule="evenodd" d="M8.64257 6.4031L2.10889 20.1271C2.08403 20.1781 2.07615 20.2358 2.08641 20.2916C2.09667 20.3475 2.12452 20.3986 2.1659 20.4375L19.8118 37.3465C19.8619 37.3945 19.9287 37.4214 19.9981 37.4214C20.0676 37.4214 20.1343 37.3945 20.1844 37.3465L37.8303 20.4385C37.8717 20.3996 37.8996 20.3485 37.9098 20.2927C37.9201 20.2368 37.9122 20.1792 37.8873 20.1281L31.3537 6.40415C31.3326 6.35806 31.2987 6.31902 31.256 6.29168C31.2133 6.26435 31.1636 6.24989 31.113 6.25002H8.88538C8.83445 6.24939 8.78443 6.2635 8.74134 6.29066C8.69826 6.31783 8.66395 6.35687 8.64257 6.4031Z" fill="#50AF95"/>
<path fill-rule="evenodd" clip-rule="evenodd" d="M22.2673 21.5355C22.1406 21.545 21.4861 21.584 20.0261 21.584C18.8648 21.584 18.0403 21.5492 17.751 21.5355C13.2633 21.338 9.91359 20.5568 9.91359 19.6215C9.91359 18.6861 13.2633 17.906 17.751 17.7054V20.7574C18.0445 20.7785 18.8849 20.8281 20.0461 20.8281C21.4396 20.8281 22.1374 20.7701 22.2631 20.7585V17.7075C26.7413 17.907 30.0836 18.6883 30.0836 19.6215C30.0836 20.5547 26.7424 21.3359 22.2631 21.5344L22.2673 21.5355ZM22.2673 17.3919V14.6608H28.517V10.4961H11.5013V14.6608H17.75V17.3908C12.6711 17.6241 8.85156 18.6302 8.85156 19.8358C8.85156 21.0414 12.6711 22.0464 17.75 22.2808V31.0325H22.2662V22.2776C27.3336 22.0443 31.1467 21.0393 31.1467 19.8347C31.1467 18.6302 27.3367 17.6252 22.2662 17.3908L22.2673 17.3919Z" fill="white"/>
</g>
<defs>
<clipPath id="clip0_6796_205578">
<rect width="35.8333" height="31.1714" fill="white" transform="translate(2.08203 6.25)"/>
</clipPath>
</defs>
</svg>
