<?xml version="1.0" encoding="utf-8"?>
<!-- Generator: Adobe Illustrator 27.8.1, SVG Export Plug-In . SVG Version: 6.00 Build 0)  -->
<svg version="1.1" id="Layer_1" xmlns="http://www.w3.org/2000/svg" xmlns:xlink="http://www.w3.org/1999/xlink" x="0px" y="0px"
	 viewBox="0 0 64 64" style="enable-background:new 0 0 64 64;" xml:space="preserve">
<style type="text/css">
	.st0{fill:#2A72E5;}
</style>
<g>
	<g>
		<path class="st0" d="M0.99,25.93c-0.2,0.63-0.44,1.47-0.6,2.12c0.16-0.55,0.38-1.3,1.64-2.08c1.62-2.03,4.05-3.32,6.75-3.29
			c0-0.01,0-0.02,0-0.02C3.93,21.26,2.43,22.85,2,23.6C1.34,24.97,1.22,25.22,0.99,25.93"/>
		<path class="st0" d="M6.01,18.47L5.3,19.16c0.82-0.67,2.18-0.52,4.26,0.49c0.41-0.76,0.99-1.49,1.7-2.18
			c-0.99-0.72-1.99-1.35-2.62-1.05C7.19,17.46,6.8,17.74,6.01,18.47"/>
		<path class="st0" d="M15.99,12.86c-0.74,0.27-1.73,0.64-2.46,0.94c0.14,0.08,0.64,0.76,1.03,1.32c1.04-0.57,2.19-1.08,3.44-1.53
			c-0.2-0.83-0.25-1.24,0.01-1.35C17.4,12.42,16.59,12.65,15.99,12.86"/>
		<path class="st0" d="M28.02,10.59c-1.13,0.09-2.63,0.23-3.75,0.36c-0.59,0.15-0.85,0.36-1.14,1.24c1.47-0.28,3.03-0.49,4.64-0.62
			c0.44-0.5,0.85-0.98,2.01-1.06L28.02,10.59"/>
		<path class="st0" d="M40.54,11.27c-1.05-0.16-2.46-0.36-3.52-0.49C36,10.73,35.23,10.75,34,11.5c1.66,0.09,3.28,0.26,4.82,0.51
			c0.78-0.29,1.95-0.73,3.78-0.33C41.99,11.55,41.16,11.37,40.54,11.27"/>
		<path class="st0" d="M51.84,14.84c-0.78-0.36-1.83-0.84-2.62-1.17c-1.9-0.67-3.15-0.78-4.94-0.4c1.35,0.42,2.62,0.91,3.77,1.45
			c1.16-0.1,3.31-0.3,6.16,1.44C53.51,15.75,52.57,15.2,51.84,14.84"/>
		<path class="st0" d="M63.05,26.58c-0.73-1.89-1-2.46-2.16-4.26l-0.56-0.77c-2.51-3.08-5.05-4.45-8.48-4.56
			c0.86,0.66,1.58,1.37,2.16,2.12c5.7,0.81,9.62,5.82,9.99,12.77C63.92,30.55,63.82,28.73,63.05,26.58"/>
		<path class="st0" d="M54.9,47.87c1.51-1.04,1.82-1.25,3.09-2.36c0.36-0.35,0.85-0.82,1.2-1.19c7.11-8.24,3.88-20.13-3.76-22.28
			c0.08,0.38,0.13,0.76,0.13,1.14c0,0.07,0,0.14,0,0.2c-0.01,0.38-0.05,0.75-0.13,1.12c8.17,3.69,7.36,18.39-1.3,23.84L54.9,47.87"
			/>
		<path class="st0" d="M44.22,52.21c1.06-0.27,2.48-0.67,3.53-0.99C58.2,47.29,59.87,31.24,54,27.38c-0.58,0.72-1.3,1.41-2.16,2.05
			c4.96,5.47-0.12,20.94-9.44,23.16L44.22,52.21"/>
		<path class="st0" d="M32.06,53.49c0.99-0.01,2.3-0.02,3.28-0.06c8.68-0.9,14.86-16.84,12.71-21.83c-1.16,0.51-2.42,0.96-3.77,1.34
			c-0.02,6.38-8.6,20.63-14.76,20.47C30.28,53.43,31.3,53.48,32.06,53.49"/>
		<path class="st0" d="M19.47,51.84c0.97,0.23,2.27,0.53,3.24,0.73c3.62,0.27,12.74-12.03,16.11-18.53
			c-1.55,0.2-3.17,0.33-4.84,0.37c-2.63,2.55-9.57,10.58-10.93,12.16c-3.51,4.08-4.82,4.85-5.29,4.78L19.47,51.84"/>
		<path class="st0" d="M8.88,47.24c1.79,1.13,1.94,1.22,3.28,1.9l0.09,0.05c0.2-1.04,8.83-11.35,15.49-15.04
			c-1.61-0.17-3.15-0.43-4.63-0.75C15.16,36.45,7.04,45.78,8.44,46.93L8.88,47.24"/>
		<path class="st0" d="M3.12,41.66c0.38,0.51,0.89,1.18,1.29,1.66C2.61,40.59,10.18,33.51,18,31.86c-1.25-0.49-2.41-1.03-3.44-1.63
			c-7.2,0.78-14.05,5.89-12.64,9.41C2.26,40.26,2.72,41.08,3.12,41.66"/>
		<path class="st0" d="M0,31.65c0,0.12,0,0.23,0,0.35c0.03,0.6,0.08,1.39,0.15,1.99c-0.19-3.88,5.7-6.39,11.11-6.21
			c-0.71-0.71-1.29-1.46-1.7-2.23c-4.57-0.59-7.08,0.59-8.37,1.68C0.46,28.53,0.03,30.04,0,31.65"/>
	</g>
</g>
</svg>
